<svg version="1.1" id="Layer_1" xmlns="http://www.w3.org/2000/svg" xmlns:xlink="http://www.w3.org/1999/xlink" x="0px" y="0px"
	 width="100%" viewBox="0 0 453 512" enable-background="new 0 0 453 512" xml:space="preserve">
<path fill="#FFFFFF" opacity="1.000000" stroke="none" 
	d="
M454.000000,202.000000 
	C454.000000,305.999969 454.000000,409.499969 454.000000,513.000000 
	C303.000061,513.000000 152.000122,513.000000 1.000137,513.000000 
	C1.000091,342.333435 1.000091,171.666870 1.000046,1.000228 
	C151.999863,1.000152 302.999725,1.000152 453.999786,1.000076 
	C454.000000,67.833336 454.000000,134.666672 454.000000,202.000000 
M342.388306,426.117859 
	C342.318390,422.101288 342.248444,418.084747 342.469208,413.299438 
	C342.366364,399.519592 342.263519,385.739746 342.389435,371.051453 
	C342.350525,358.251434 342.316193,345.451416 342.271637,332.651428 
	C342.187378,308.433990 342.097260,284.216522 342.067993,259.062836 
	C342.091949,251.129013 342.144501,243.194962 342.077209,235.261917 
	C342.072601,234.717529 341.171844,234.180740 340.670898,233.683517 
	C340.670898,233.683517 340.683655,233.617035 339.866943,233.211655 
	C313.074097,233.185623 286.281281,233.147446 259.488464,233.167328 
	C258.063232,233.168381 256.638428,233.659332 254.458328,233.989120 
	C253.955627,234.031006 253.452927,234.072891 252.119614,233.983093 
	C249.978989,233.772522 247.837723,233.374298 245.697830,233.381409 
	C230.269485,233.432648 214.841553,233.603683 199.413223,233.662155 
	C185.465836,233.715012 171.518082,233.673325 157.844116,233.673325 
	C157.844116,221.858994 157.952057,210.460144 157.818253,199.064148 
	C157.627472,182.814987 157.311157,166.566727 156.937073,150.320633 
	C156.817749,145.138153 156.344147,139.963821 156.024490,134.321503 
	C156.024490,134.321503 155.850998,133.890808 156.029633,133.104935 
	C156.079727,131.763184 156.129837,130.421432 157.091507,129.078659 
	C164.798981,129.045349 172.506439,129.012039 180.278564,129.209000 
	C180.278564,129.209000 180.628860,129.238953 180.628860,129.238953 
	C180.628860,129.238953 180.814011,128.986404 181.403000,129.111252 
	C181.600754,129.077118 181.798523,129.042999 182.917816,129.199585 
	C235.762543,129.199585 288.607269,129.199585 341.312469,129.199585 
	C341.562653,128.918213 341.768799,128.795029 341.770416,128.669205 
	C342.009857,110.144402 342.235504,91.619423 342.400177,73.093910 
	C342.400574,73.046143 341.496918,72.990341 340.089142,72.772469 
	C329.732361,72.855659 319.375610,72.938858 308.088501,72.879425 
	C298.784576,72.891640 289.480621,72.893478 280.176727,72.918068 
	C255.096664,72.984360 230.016632,73.060341 204.502441,73.006233 
	C204.502441,73.006233 204.067047,73.134392 203.148239,72.941566 
	C199.082764,73.003120 195.017288,73.064674 190.498550,73.002548 
	C190.498550,73.002548 190.047028,73.132416 189.127106,72.934479 
	C184.405167,73.020370 179.683243,73.106270 174.036667,73.060272 
	C150.362839,73.084335 126.689011,73.108406 102.155502,73.331642 
	C102.170113,94.545219 102.184723,115.758789 102.036583,137.900803 
	C102.036583,189.157608 102.036583,240.414413 102.036583,291.912445 
	C103.280418,291.981323 104.076202,292.065948 104.871727,292.063538 
	C125.669319,292.000671 146.467087,291.959686 167.264221,291.823242 
	C170.191864,291.804047 173.116394,291.310730 176.879303,291.118835 
	C178.988541,291.410950 181.100037,291.971344 183.206696,291.953735 
	C204.559143,291.775299 225.910370,291.449127 247.262817,291.275818 
	C260.380402,291.169342 273.499512,291.256104 286.640991,291.256104 
	C287.092224,294.289703 287.526154,297.207184 287.983124,300.517059 
	C287.983124,300.517059 287.912689,300.903809 287.179993,301.412018 
	C287.327332,311.144684 287.525024,320.876953 287.610474,330.610138 
	C287.746338,346.078156 287.807312,361.546814 287.639160,377.908539 
	C287.712097,381.926636 287.785034,385.944702 287.578278,390.722778 
	C287.421173,393.133789 287.264038,395.544800 287.087524,398.253448 
	C266.329193,398.253448 246.074066,398.221649 225.819138,398.273102 
	C219.859680,398.288239 213.900803,398.539246 207.409988,398.566925 
	C207.051331,398.604980 206.692688,398.643066 205.633286,398.336304 
	C203.325623,398.471588 201.017960,398.606873 198.242310,398.640961 
	C197.920090,398.605469 197.603897,398.634827 196.848312,398.369690 
	C196.134857,398.491669 195.421387,398.613647 194.239838,398.635834 
	C193.917419,398.601471 193.601669,398.633240 192.847473,398.373322 
	C192.132812,398.490967 191.418152,398.608643 190.247314,398.614288 
	C189.931061,398.562286 189.621460,398.588654 188.981445,398.368683 
	C188.579102,398.515961 188.176743,398.663269 187.068115,398.703339 
	C186.118271,398.738495 185.168442,398.773651 183.921967,398.482208 
	C183.537079,398.586456 183.152206,398.690674 182.068054,398.707123 
	C181.130737,398.727173 180.193436,398.747223 178.957062,398.445648 
	C178.581802,398.583954 178.206558,398.722290 177.306122,398.791992 
	C176.954178,398.788574 176.602219,398.785126 175.947052,398.420288 
	C175.536148,398.527374 175.125229,398.634491 173.849136,398.653687 
	C171.215652,398.735809 168.582184,398.817932 165.517105,398.682343 
	C165.517105,398.682343 165.071228,398.869324 164.138626,398.689728 
	C154.085815,398.781097 144.033020,398.872437 133.499420,398.782501 
	C133.339279,398.843262 133.179153,398.904053 132.086334,398.840942 
	C121.816841,398.840942 111.547348,398.840942 102.473793,398.840942 
	C102.679619,408.210236 102.877357,417.211334 102.903038,427.109100 
	C102.967285,434.663849 103.031532,442.218567 102.863823,450.552399 
	C102.612526,451.382294 102.361237,452.212158 102.088913,453.111511 
	C102.850182,453.344666 103.310318,453.610321 103.769295,453.608337 
	C134.892471,453.473389 166.015381,453.253754 197.138657,453.179047 
	C232.329971,453.094574 267.521606,453.139160 302.713104,453.126282 
	C314.534393,453.121979 326.355927,453.146851 338.176605,453.059113 
	C339.448151,453.049683 340.714722,452.375122 342.375397,451.141693 
	C342.309082,443.419373 342.242767,435.697052 342.386353,427.494904 
	C342.311188,427.337372 342.236053,427.179840 342.388306,426.117859 
M99.255257,399.124268 
	C99.433182,399.170868 99.767441,399.231110 99.764755,399.261993 
	C99.739265,399.554840 99.656509,399.842743 99.590233,400.132050 
	C99.458260,399.929749 99.326294,399.727448 99.255257,399.124268 
z"/>
<path fill="#00A1E7" opacity="1.000000" stroke="none" 
	d="
M103.095779,449.773315 
	C103.031532,442.218567 102.967285,434.663849 103.354797,426.404572 
	C103.806564,417.307739 103.806564,408.915436 103.806564,399.964172 
	C114.340393,399.964172 123.788437,399.964172 133.366272,400.011566 
	C133.496063,400.058960 133.761368,399.964294 134.243866,399.999939 
	C144.916794,400.008820 155.107208,399.982056 165.399231,400.000305 
	C165.500839,400.045319 165.704742,399.956848 166.190353,399.999054 
	C180.564377,400.005310 194.452789,399.969330 208.429764,399.973999 
	C208.518326,400.014648 208.695175,399.932800 209.144257,399.983795 
	C210.495468,400.000366 211.397583,399.965973 212.711899,399.992950 
	C238.333725,400.054321 263.543365,400.054321 288.919800,400.054321 
	C288.919800,396.240906 288.919800,393.274658 289.336548,390.060944 
	C306.004730,389.697632 322.256775,389.631958 338.506989,389.421356 
	C341.561188,389.381744 342.674133,390.501495 342.446991,393.498810 
	C341.930725,400.311005 341.558380,407.134125 341.032623,414.413696 
	C340.973907,418.924683 341.010101,422.974762 340.975800,427.257874 
	C340.905304,427.490967 341.025269,427.962952 340.943604,428.427948 
	C340.771240,436.556976 340.680542,444.220978 340.146851,451.871460 
	C262.307312,451.915955 184.910660,451.986481 107.514114,451.937805 
	C106.040878,451.936859 104.568535,450.526245 103.095779,449.773315 
z"/>
<path fill="#22B14C" opacity="1.000000" stroke="none" 
	d="
M156.179932,129.079681 
	C156.129837,130.421432 156.079727,131.763184 155.484039,133.546295 
	C138.050217,133.987640 121.161972,133.987640 104.220291,133.987640 
	C104.220291,113.924919 104.220291,94.703499 104.220291,74.940758 
	C106.365189,74.940758 108.153297,74.943161 109.941406,74.940392 
	C131.410583,74.907135 152.879807,74.888824 174.348801,74.807503 
	C175.952545,74.801430 177.554596,74.342834 179.490295,74.109680 
	C180.492477,74.116028 181.161819,74.107292 182.127335,74.323921 
	C184.323456,74.390450 186.223373,74.231613 188.440002,74.092133 
	C189.178513,74.085983 189.600357,74.060493 190.260773,74.051704 
	C190.499374,74.068405 190.977829,74.040878 191.196625,74.073685 
	C191.415405,74.106499 191.857208,74.081749 192.175323,74.312515 
	C195.043930,74.391754 197.594437,74.240227 200.480988,74.111862 
	C201.490097,74.159348 202.163147,74.183670 203.183441,74.421509 
	C207.064407,74.449432 210.598145,74.263847 214.465286,74.094040 
	C215.466080,74.112556 216.133484,74.115288 216.951263,74.270477 
	C217.468719,74.321983 217.835785,74.221039 218.658722,74.120087 
	C249.074570,74.035980 279.034576,73.951874 309.458771,73.949829 
	C311.908142,74.066422 313.894073,74.077705 315.878387,74.139534 
	C323.948456,74.390938 332.018066,74.657845 340.050964,75.393730 
	C340.014099,92.779289 340.014099,109.690155 340.014099,127.009933 
	C336.227875,127.009933 333.256378,127.007072 330.284851,127.010361 
	C282.822632,127.062912 235.360413,127.116264 187.593811,127.160370 
	C186.884293,127.174675 186.479141,127.198044 185.600220,127.164169 
	C174.641968,127.106911 164.157501,127.106911 153.673050,127.106911 
	C153.646317,127.509605 153.619583,127.912292 153.592865,128.314987 
	C154.455215,128.569885 155.317581,128.824783 156.179932,129.079681 
z"/>
<path fill="#EC1C24" opacity="1.000000" stroke="none" 
	d="
M287.912689,300.903809 
	C287.912689,300.903809 287.983124,300.517059 288.310852,300.055908 
	C288.783173,296.388977 288.927765,293.183197 289.063629,290.171539 
	C239.465439,290.171539 190.587341,290.171539 141.259506,290.153076 
	C130.029572,290.130524 119.245232,289.954376 108.471390,290.213806 
	C104.591751,290.307251 103.681610,288.963440 103.800934,285.355164 
	C104.052948,277.733551 103.894554,270.098419 104.362320,262.310669 
	C111.134727,262.120667 117.449310,262.071381 123.763954,262.059631 
	C170.471329,261.972717 217.178696,261.893250 264.357971,261.874329 
	C290.104767,262.014252 315.379608,262.091278 340.725403,262.620392 
	C340.802551,281.344879 340.692291,299.618683 340.905273,317.888702 
	C340.952606,321.949432 339.637909,322.965790 335.761017,322.865540 
	C326.293427,322.620758 316.814362,322.823364 307.339935,322.837158 
	C301.401062,322.845825 295.462189,322.838776 288.892365,322.838776 
	C288.892365,318.875000 289.019470,315.423645 288.857849,311.985870 
	C288.683868,308.285217 288.239227,304.597290 287.912689,300.903809 
z"/>
<path fill="#FE7E27" opacity="1.000000" stroke="none" 
	d="
M252.950226,234.114777 
	C253.452927,234.072891 253.955627,234.031006 255.191254,234.150711 
	C257.036743,234.535080 258.149261,234.951767 259.261932,234.952240 
	C285.771271,234.963776 312.280579,234.930603 339.168579,235.086182 
	C339.969635,237.567841 340.392029,239.868866 340.801605,242.446869 
	C340.797211,243.093338 340.805664,243.462830 340.598633,244.178558 
	C340.543640,248.054733 340.704193,251.584686 340.834717,255.511780 
	C340.822479,257.232025 340.840271,258.555115 340.837524,259.831970 
	C340.816956,259.785767 340.716522,259.797943 340.269897,259.837982 
	C296.186035,259.934082 252.548798,259.983978 208.911606,260.063354 
	C206.596695,260.067566 204.282257,260.320953 201.577698,260.412262 
	C200.146652,260.405884 199.105499,260.445587 197.685242,260.351501 
	C196.517776,260.300842 195.729401,260.383972 194.626495,260.436890 
	C193.891891,260.434814 193.471817,260.462952 192.736298,260.335327 
	C191.545013,260.364532 190.669144,260.549561 189.453979,260.688171 
	C187.757385,260.630005 186.400085,260.618225 184.778900,260.441956 
	C183.960861,260.459930 183.406693,260.642395 182.518799,260.815613 
	C181.517410,260.804413 180.849762,260.802460 180.046860,260.629883 
	C179.538269,260.558624 179.164902,260.657959 178.336884,260.728638 
	C153.350433,260.699890 128.818634,260.699799 104.210373,260.258026 
	C104.110359,245.415344 104.118881,231.014175 104.024353,216.613678 
	C104.011978,214.727783 103.471146,212.845367 103.122437,210.577942 
	C103.355042,206.796585 103.640282,203.398636 104.402306,200.011902 
	C121.829109,200.125137 138.779129,200.227158 155.771744,200.774719 
	C155.814346,212.422729 155.814346,223.625214 155.814346,235.025757 
	C188.107971,235.025757 219.486084,235.031631 250.864136,234.987732 
	C251.559891,234.986771 252.254883,234.418457 252.950226,234.114777 
z"/>
<path fill="#705C4E" opacity="1.000000" stroke="none" 
	d="
M103.925522,200.000687 
	C103.640282,203.398636 103.355042,206.796585 103.087463,211.047699 
	C103.142311,228.239273 103.179504,244.577698 103.218369,261.218323 
	C103.448204,261.836639 103.676361,262.152710 103.904526,262.468811 
	C103.894554,270.098419 104.052948,277.733551 103.800934,285.355164 
	C103.681610,288.963440 104.591751,290.307251 108.471390,290.213806 
	C119.245232,289.954376 130.029572,290.130524 141.635468,290.385254 
	C153.654922,290.769562 164.848648,290.903198 176.042374,291.036865 
	C173.116394,291.310730 170.191864,291.804047 167.264221,291.823242 
	C146.467087,291.959686 125.669319,292.000671 104.871727,292.063538 
	C104.076202,292.065948 103.280418,291.981323 102.036583,291.912445 
	C102.036583,240.414413 102.036583,189.157608 102.292526,137.327637 
	C102.759918,136.571548 102.917656,136.350342 103.225533,136.098145 
	C103.429359,136.105469 103.828194,136.191040 103.824593,136.641159 
	C103.819229,154.043274 103.810333,170.995270 103.821548,187.947266 
	C103.823875,191.456406 103.900963,194.965515 103.942192,198.728989 
	C103.935707,199.322449 103.930618,199.661575 103.925522,200.000687 
z"/>
<path fill="#0C4B1E" opacity="1.000000" stroke="none" 
	d="
M103.828194,136.191040 
	C103.828194,136.191040 103.429359,136.105469 103.197525,135.621933 
	C102.982193,114.469757 102.998688,93.801117 103.015182,73.132477 
	C126.689011,73.108406 150.362839,73.084335 174.780426,73.356110 
	C176.735260,73.799492 177.946350,73.947052 179.157425,74.094604 
	C177.554596,74.342834 175.952545,74.801430 174.348801,74.807503 
	C152.879807,74.888824 131.410583,74.907135 109.941406,74.940392 
	C108.153297,74.943161 106.365189,74.940758 104.220291,74.940758 
	C104.220291,94.703499 104.220291,113.924919 104.220291,133.987640 
	C121.161972,133.987640 138.050217,133.987640 155.394730,133.939224 
	C155.850998,133.890808 156.024490,134.321503 156.000641,134.989471 
	C155.991714,137.667480 156.006622,139.677521 155.874268,141.350983 
	C155.580597,139.396057 155.434189,137.777725 155.290634,136.191040 
	C137.914047,136.191040 120.871117,136.191040 103.828194,136.191040 
z"/>
<path fill="#0A1E27" opacity="1.000000" stroke="none" 
	d="
M102.979797,450.162872 
	C104.568535,450.526245 106.040878,451.936859 107.514114,451.937805 
	C184.910660,451.986481 262.307312,451.915955 340.495667,451.900513 
	C341.519470,451.965088 341.751526,451.987091 341.983612,452.009125 
	C340.714722,452.375122 339.448151,453.049683 338.176605,453.059113 
	C326.355927,453.146851 314.534393,453.121979 302.713104,453.126282 
	C267.521606,453.139160 232.329971,453.094574 197.138657,453.179047 
	C166.015381,453.253754 134.892471,453.473389 103.769295,453.608337 
	C103.310318,453.610321 102.850182,453.344666 102.088913,453.111511 
	C102.361237,452.212158 102.612526,451.382294 102.979797,450.162872 
z"/>
<path fill="#2C2824" opacity="1.000000" stroke="none" 
	d="
M156.021545,141.687576 
	C156.006622,139.677521 155.991714,137.667480 156.004730,135.221588 
	C156.344147,139.963821 156.817749,145.138153 156.937073,150.320633 
	C157.311157,166.566727 157.627472,182.814987 157.818253,199.064148 
	C157.952057,210.460144 157.844116,221.858994 157.844116,233.673325 
	C171.518082,233.673325 185.465836,233.715012 199.413223,233.662155 
	C214.841553,233.603683 230.269485,233.432648 245.697830,233.381409 
	C247.837723,233.374298 249.978989,233.772522 252.534927,234.048950 
	C252.254883,234.418457 251.559891,234.986771 250.864136,234.987732 
	C219.486084,235.031631 188.107971,235.025757 155.814346,235.025757 
	C155.814346,223.625214 155.814346,212.422729 155.795273,200.350800 
	C155.760651,198.916718 155.745102,198.352097 155.749329,197.331161 
	C155.853256,178.479095 155.937393,160.083328 156.021545,141.687576 
z"/>
<path fill="#1E0B12" opacity="1.000000" stroke="none" 
	d="
M287.546326,301.157898 
	C288.239227,304.597290 288.683868,308.285217 288.857849,311.985870 
	C289.019470,315.423645 288.892365,318.875000 288.892365,322.838776 
	C295.462189,322.838776 301.401062,322.845825 307.339935,322.837158 
	C316.814362,322.823364 326.293427,322.620758 335.761017,322.865540 
	C339.637909,322.965790 340.952606,321.949432 340.905273,317.888702 
	C340.692291,299.618683 340.802551,281.344879 340.783356,262.228027 
	C340.752472,260.855072 340.734497,260.326508 340.716522,259.797943 
	C340.716522,259.797943 340.816956,259.785767 341.124542,259.871216 
	C341.624603,259.970856 341.817108,259.984985 342.009583,259.999084 
	C342.097260,284.216522 342.187378,308.433990 342.271637,332.651428 
	C342.316193,345.451416 342.350525,358.251434 342.013092,371.510651 
	C341.462433,371.980713 341.288086,371.991577 341.048889,371.536499 
	C340.984100,355.496826 340.984100,339.923126 340.984100,324.335693 
	C323.227936,324.335693 306.345123,324.335693 288.908264,324.335693 
	C288.908264,342.119446 288.908264,359.561615 288.656128,377.002197 
	C288.235992,377.005463 288.067963,377.010345 287.899933,377.015198 
	C287.807312,361.546814 287.746338,346.078156 287.610474,330.610138 
	C287.525024,320.876953 287.327332,311.144684 287.546326,301.157898 
z"/>
<path fill="#474547" opacity="1.000000" stroke="none" 
	d="
M186.074005,127.221420 
	C186.479141,127.198044 186.884293,127.174675 187.917267,127.435234 
	C189.693588,127.834549 190.842087,128.051010 191.990540,128.050766 
	C240.282486,128.040268 288.574432,128.013687 336.866364,127.965012 
	C338.126862,127.963745 339.387115,127.695312 340.750549,127.539711 
	C340.750549,109.698654 340.750549,92.238884 340.816833,74.474564 
	C340.927277,73.759445 340.971405,73.348869 341.015533,72.938301 
	C341.496918,72.990341 342.400574,73.046143 342.400177,73.093910 
	C342.235504,91.619423 342.009857,110.144402 341.770416,128.669205 
	C341.768799,128.795029 341.562653,128.918213 341.312469,129.199585 
	C288.607269,129.199585 235.762543,129.199585 182.679016,128.861313 
	C183.651474,128.089157 184.862732,127.655289 186.074005,127.221420 
z"/>
<path fill="#2C2824" opacity="1.000000" stroke="none" 
	d="
M287.769531,377.461853 
	C288.067963,377.010345 288.235992,377.005463 288.714172,377.460083 
	C289.024323,381.183899 289.024323,384.448273 289.024323,387.699402 
	C306.707947,387.699402 323.621735,387.699402 341.113708,387.699402 
	C341.113708,382.250885 341.113708,377.126648 341.113708,372.002441 
	C341.288086,371.991577 341.462433,371.980713 341.898743,371.964874 
	C342.263519,385.739746 342.366364,399.519592 342.060242,413.663147 
	C341.476685,414.002197 341.302124,413.977478 341.127563,413.952789 
	C341.558380,407.134125 341.930725,400.311005 342.446991,393.498810 
	C342.674133,390.501495 341.561188,389.381744 338.506989,389.421356 
	C322.256775,389.631958 306.004730,389.697632 289.072876,389.968994 
	C288.214294,390.070618 288.036133,390.016724 287.857971,389.962799 
	C287.785034,385.944702 287.712097,381.926636 287.769531,377.461853 
z"/>
<path fill="#320907" opacity="1.000000" stroke="none" 
	d="
M176.460846,291.077850 
	C164.848648,290.903198 153.654922,290.769562 142.085236,290.403717 
	C190.587341,290.171539 239.465439,290.171539 289.063629,290.171539 
	C288.927765,293.183197 288.783173,296.388977 288.299347,299.859711 
	C287.526154,297.207184 287.092224,294.289703 286.640991,291.256104 
	C273.499512,291.256104 260.380402,291.169342 247.262817,291.275818 
	C225.910370,291.449127 204.559143,291.775299 183.206696,291.953735 
	C181.100037,291.971344 178.988541,291.410950 176.460846,291.077850 
z"/>
<path fill="#4A5D66" opacity="1.000000" stroke="none" 
	d="
M287.718140,390.342773 
	C288.036133,390.016724 288.214294,390.070618 288.656128,390.216492 
	C288.919800,393.274658 288.919800,396.240906 288.919800,400.054321 
	C263.543365,400.054321 238.333725,400.054321 212.467682,399.750275 
	C210.772583,399.608429 209.733871,399.770630 208.695175,399.932800 
	C208.695175,399.932800 208.518326,400.014648 208.318466,399.664246 
	C208.059631,399.103302 208.000641,398.892761 207.941666,398.682190 
	C213.900803,398.539246 219.859680,398.288239 225.819138,398.273102 
	C246.074066,398.221649 266.329193,398.253448 287.087524,398.253448 
	C287.264038,395.544800 287.421173,393.133789 287.718140,390.342773 
z"/>
<path fill="#705C4E" opacity="1.000000" stroke="none" 
	d="
M338.789917,234.905579 
	C312.280579,234.930603 285.771271,234.963776 259.261932,234.952240 
	C258.149261,234.951767 257.036743,234.535080 255.568787,234.117249 
	C256.638428,233.659332 258.063232,233.168381 259.488464,233.167328 
	C286.281281,233.147446 313.074097,233.185623 339.939270,233.600327 
	C339.604401,234.294525 339.197174,234.600052 338.789917,234.905579 
z"/>
<path fill="#2C2824" opacity="1.000000" stroke="none" 
	d="
M308.994568,73.867760 
	C279.034576,73.951874 249.074570,74.035980 218.307495,74.088257 
	C217.267242,74.076973 217.034058,74.097504 216.800873,74.118027 
	C216.133484,74.115288 215.466080,74.112556 214.016479,74.060081 
	C210.468369,73.717728 207.702484,73.425102 204.936584,73.132477 
	C230.016632,73.060341 255.096664,72.984360 280.176727,72.918068 
	C289.480621,72.893478 298.784576,72.891640 308.551147,73.162277 
	C309.013794,73.445129 308.994568,73.867760 308.994568,73.867760 
z"/>
<path fill="#474547" opacity="1.000000" stroke="none" 
	d="
M102.585342,73.232056 
	C102.998688,93.801117 102.982193,114.469757 102.993698,135.614624 
	C102.917656,136.350342 102.759918,136.571548 102.373901,136.863403 
	C102.184723,115.758789 102.170113,94.545219 102.585342,73.232056 
z"/>
<path fill="#0C4B1E" opacity="1.000000" stroke="none" 
	d="
M185.600220,127.164169 
	C184.862732,127.655289 183.651474,128.089157 182.218262,128.765961 
	C181.798523,129.042999 181.600754,129.077118 180.960083,128.991577 
	C180.517181,128.871902 180.213913,128.978745 180.213913,128.978745 
	C172.506439,129.012039 164.798981,129.045349 156.635712,129.079163 
	C155.317581,128.824783 154.455215,128.569885 153.592865,128.314987 
	C153.619583,127.912292 153.646317,127.509605 153.673050,127.106911 
	C164.157501,127.106911 174.641968,127.106911 185.600220,127.164169 
z"/>
<path fill="#0A1E27" opacity="1.000000" stroke="none" 
	d="
M133.236481,399.964172 
	C123.788437,399.964172 114.340393,399.964172 103.806564,399.964172 
	C103.806564,408.915436 103.806564,417.307739 103.440826,425.956238 
	C102.877357,417.211334 102.679619,408.210236 102.473793,398.840942 
	C111.547348,398.840942 121.816841,398.840942 132.619507,399.149994 
	C133.180618,399.627411 133.208542,399.795807 133.236481,399.964172 
z"/>
<path fill="#0A1E27" opacity="1.000000" stroke="none" 
	d="
M207.675827,398.624573 
	C208.000641,398.892761 208.059631,399.103302 208.229904,399.623596 
	C194.452789,399.969330 180.564377,400.005310 166.248505,399.733856 
	C165.863571,399.251007 165.906128,399.075531 165.948700,398.900085 
	C168.582184,398.817932 171.215652,398.735809 174.663177,398.807983 
	C175.734909,398.902100 175.992599,398.841919 176.250275,398.781708 
	C176.602219,398.785126 176.954178,398.788574 177.930969,398.895996 
	C178.789261,398.922424 179.022690,398.844849 179.256119,398.767273 
	C180.193436,398.747223 181.130737,398.727173 182.779541,398.852173 
	C183.733566,398.934418 183.976089,398.871613 184.218597,398.808807 
	C185.168442,398.773651 186.118271,398.738495 187.815262,398.832764 
	C188.814453,398.872559 189.066498,398.782959 189.318527,398.693359 
	C189.621460,398.588654 189.931061,398.562286 190.898712,398.815063 
	C192.130936,398.920959 192.711761,398.826050 193.292587,398.731140 
	C193.601669,398.633240 193.917419,398.601471 194.897736,398.824463 
	C196.135010,398.918396 196.714371,398.823700 197.293732,398.729004 
	C197.603897,398.634827 197.920090,398.605469 198.935913,398.842957 
	C201.864349,398.923645 204.099197,398.802399 206.334030,398.681122 
	C206.692688,398.643066 207.051331,398.604980 207.675827,398.624573 
z"/>
<path fill="#1E0B12" opacity="1.000000" stroke="none" 
	d="
M309.458771,73.949829 
	C308.994568,73.867760 309.013794,73.445129 309.016296,73.233589 
	C319.375610,72.938858 329.732361,72.855659 340.552338,72.855385 
	C340.971405,73.348869 340.927277,73.759445 340.654205,74.523514 
	C340.425262,74.877007 340.087830,74.919044 340.087830,74.919037 
	C332.018066,74.657845 323.948456,74.390938 315.878387,74.139534 
	C313.894073,74.077705 311.908142,74.066422 309.458771,73.949829 
z"/>
<path fill="#0A1E27" opacity="1.000000" stroke="none" 
	d="
M165.297623,399.955261 
	C155.107208,399.982056 144.916794,400.008820 134.287338,399.747131 
	C133.892273,399.293671 133.936249,399.128723 133.980209,398.963806 
	C144.033020,398.872437 154.085815,398.781097 164.660660,399.051208 
	C165.221008,399.593536 165.259308,399.774384 165.297623,399.955261 
z"/>
<path fill="#2C2824" opacity="1.000000" stroke="none" 
	d="
M342.038788,259.530945 
	C341.817108,259.984985 341.624603,259.970856 341.145081,259.917450 
	C340.840271,258.555115 340.822479,257.232025 340.925354,255.049225 
	C340.968689,250.737122 340.891388,247.284729 340.814117,243.832321 
	C340.805664,243.462830 340.797211,243.093338 340.892548,241.980835 
	C340.893524,238.705368 340.790680,236.172897 340.687836,233.640427 
	C341.171844,234.180740 342.072601,234.717529 342.077209,235.261917 
	C342.144501,243.194962 342.091949,251.129013 342.038788,259.530945 
z"/>
<path fill="#1E0B12" opacity="1.000000" stroke="none" 
	d="
M342.179504,451.575409 
	C341.751526,451.987091 341.519470,451.965088 340.938599,451.914062 
	C340.680542,444.220978 340.771240,436.556976 341.231323,428.437286 
	C341.792633,427.979340 341.984558,427.977020 342.176453,427.974731 
	C342.242767,435.697052 342.309082,443.419373 342.179504,451.575409 
z"/>
<path fill="#2C2824" opacity="1.000000" stroke="none" 
	d="
M179.490295,74.109680 
	C177.946350,73.947052 176.735260,73.799492 175.242737,73.422050 
	C179.683243,73.106270 184.405167,73.020370 189.575165,73.258942 
	C190.023224,73.583397 190.022186,74.034996 190.022186,74.035004 
	C189.600357,74.060493 189.178513,74.085983 187.991043,74.053070 
	C185.427322,74.029297 183.629227,74.063927 181.831146,74.098557 
	C181.161819,74.107292 180.492477,74.116028 179.490295,74.109680 
z"/>
<path fill="#2C2824" opacity="1.000000" stroke="none" 
	d="
M191.857208,74.081749 
	C191.857208,74.081749 191.415405,74.106499 191.195679,73.844536 
	C190.975952,73.582573 190.951813,73.126236 190.951813,73.126236 
	C195.017288,73.064674 199.082764,73.003120 203.444092,73.259674 
	C203.438675,73.787849 203.137436,73.997917 202.836197,74.207993 
	C202.163147,74.183670 201.490097,74.159348 200.019775,74.068619 
	C196.767410,74.028732 194.312317,74.055237 191.857208,74.081749 
z"/>
<path fill="#1E0B12" opacity="1.000000" stroke="none" 
	d="
M341.032654,414.413696 
	C341.302124,413.977478 341.476685,414.002197 341.914886,414.047546 
	C342.248444,418.084747 342.318390,422.101288 341.995911,426.562653 
	C341.417786,427.013214 341.232056,427.019012 341.046295,427.024811 
	C341.010101,422.974762 340.973907,418.924683 341.032654,414.413696 
z"/>
<path fill="#0C4B1E" opacity="1.000000" stroke="none" 
	d="
M203.183441,74.421501 
	C203.137436,73.997917 203.438675,73.787849 203.903488,73.356087 
	C204.067047,73.134392 204.502441,73.006233 204.719513,73.069351 
	C207.702484,73.425102 210.468369,73.717728 213.683075,74.044296 
	C210.598145,74.263847 207.064407,74.449432 203.183441,74.421501 
z"/>
<path fill="#7D3613" opacity="1.000000" stroke="none" 
	d="
M340.679382,233.661972 
	C340.790680,236.172897 340.893524,238.705368 340.905396,241.703873 
	C340.392029,239.868866 339.969635,237.567841 339.168579,235.086182 
	C339.197174,234.600052 339.604401,234.294525 340.347656,233.803009 
	C340.683655,233.617035 340.670898,233.683517 340.679382,233.661972 
z"/>
<path fill="#4A5D66" opacity="1.000000" stroke="none" 
	d="
M205.983658,398.508728 
	C204.099197,398.802399 201.864349,398.923645 199.169907,398.893555 
	C201.017960,398.606873 203.325623,398.471588 205.983658,398.508728 
z"/>
<path fill="#4A5D66" opacity="1.000000" stroke="none" 
	d="
M99.224792,399.324707 
	C99.326294,399.727448 99.458260,399.929749 99.590240,400.132050 
	C99.656509,399.842743 99.739265,399.554840 99.764755,399.261993 
	C99.767441,399.231110 99.433182,399.170868 99.224792,399.324707 
z"/>
<path fill="#4A5D66" opacity="1.000000" stroke="none" 
	d="
M197.071014,398.549316 
	C196.714371,398.823700 196.135010,398.918396 195.131775,398.874390 
	C195.421387,398.613647 196.134857,398.491669 197.071014,398.549316 
z"/>
<path fill="#4A5D66" opacity="1.000000" stroke="none" 
	d="
M193.070038,398.552216 
	C192.711761,398.826050 192.130936,398.920959 191.126801,398.871094 
	C191.418152,398.608643 192.132812,398.490967 193.070038,398.552216 
z"/>
<path fill="#474547" opacity="1.000000" stroke="none" 
	d="
M180.246246,129.093872 
	C180.213913,128.978745 180.517181,128.871902 180.665588,128.929153 
	C180.814011,128.986404 180.628860,129.238953 180.628860,129.238953 
	C180.628860,129.238953 180.278564,129.209000 180.246246,129.093872 
z"/>
<path fill="#4A5D66" opacity="1.000000" stroke="none" 
	d="
M133.739807,398.873169 
	C133.936249,399.128723 133.892273,399.293671 133.804840,399.711487 
	C133.761368,399.964294 133.496063,400.058960 133.366272,400.011566 
	C133.208542,399.795807 133.180618,399.627411 133.085846,399.211914 
	C133.179153,398.904053 133.339279,398.843262 133.739807,398.873169 
z"/>
<path fill="#4A5D66" opacity="1.000000" stroke="none" 
	d="
M189.149994,398.531006 
	C189.066498,398.782959 188.814453,398.872559 188.168396,398.886353 
	C188.176743,398.663269 188.579102,398.515961 189.149994,398.531006 
z"/>
<path fill="#4A5D66" opacity="1.000000" stroke="none" 
	d="
M165.399231,400.000305 
	C165.259308,399.774384 165.221008,399.593536 165.126953,399.140991 
	C165.071228,398.869324 165.517105,398.682343 165.732910,398.791199 
	C165.906128,399.075531 165.863571,399.251007 165.762878,399.691650 
	C165.704742,399.956848 165.500839,400.045319 165.399231,400.000305 
z"/>
<path fill="#4A5D66" opacity="1.000000" stroke="none" 
	d="
M184.070282,398.645508 
	C183.976089,398.871613 183.733566,398.934418 183.129181,398.896057 
	C183.152206,398.690674 183.537079,398.586456 184.070282,398.645508 
z"/>
<path fill="#4A5D66" opacity="1.000000" stroke="none" 
	d="
M179.106598,398.606445 
	C179.022690,398.844849 178.789261,398.922424 178.193573,398.930298 
	C178.206558,398.722290 178.581802,398.583954 179.106598,398.606445 
z"/>
<path fill="#2C2824" opacity="1.000000" stroke="none" 
	d="
M340.975800,427.257874 
	C341.232056,427.019012 341.417786,427.013214 341.882202,427.014893 
	C342.236053,427.179840 342.311188,427.337372 342.281403,427.734802 
	C341.984558,427.977020 341.792633,427.979340 341.312988,427.972290 
	C341.025269,427.962952 340.905304,427.490967 340.975800,427.257874 
z"/>
<path fill="#4A5D66" opacity="1.000000" stroke="none" 
	d="
M176.098663,398.601013 
	C175.992599,398.841919 175.734909,398.902100 175.095764,398.851959 
	C175.125229,398.634491 175.536148,398.527374 176.098663,398.601013 
z"/>
<path fill="#0C4B1E" opacity="1.000000" stroke="none" 
	d="
M190.725189,73.064392 
	C190.951813,73.126236 190.975952,73.582573 190.976898,73.811722 
	C190.977829,74.040878 190.499374,74.068405 190.260773,74.051697 
	C190.022186,74.034996 190.023224,73.583397 190.035126,73.357910 
	C190.047028,73.132416 190.498550,73.002548 190.725189,73.064392 
z"/>
<path fill="#0A1E27" opacity="1.000000" stroke="none" 
	d="
M209.144257,399.983795 
	C209.733871,399.770630 210.772583,399.608429 212.055496,399.688904 
	C211.397583,399.965973 210.495468,400.000366 209.144257,399.983795 
z"/>
<path fill="#0C4B1E" opacity="1.000000" stroke="none" 
	d="
M340.050964,75.393738 
	C340.087830,74.919044 340.425262,74.877007 340.587891,74.828064 
	C340.750549,92.238884 340.750549,109.698654 340.750549,127.539711 
	C339.387115,127.695312 338.126862,127.963745 336.866364,127.965012 
	C288.574432,128.013687 240.282486,128.040268 191.990540,128.050766 
	C190.842087,128.051010 189.693588,127.834549 188.221649,127.444305 
	C235.360413,127.116264 282.822632,127.062912 330.284851,127.010361 
	C333.256378,127.007072 336.227875,127.009933 340.014099,127.009933 
	C340.014099,109.690155 340.014099,92.779289 340.050964,75.393738 
z"/>
<path fill="#0C4B1E" opacity="1.000000" stroke="none" 
	d="
M192.175323,74.312515 
	C194.312317,74.055237 196.767410,74.028732 199.683716,74.045456 
	C197.594437,74.240227 195.043930,74.391754 192.175323,74.312515 
z"/>
<path fill="#0C4B1E" opacity="1.000000" stroke="none" 
	d="
M182.127335,74.323921 
	C183.629227,74.063927 185.427322,74.029297 187.674347,74.033722 
	C186.223373,74.231613 184.323456,74.390450 182.127335,74.323921 
z"/>
<path fill="#0C4B1E" opacity="1.000000" stroke="none" 
	d="
M216.951263,74.270477 
	C217.034058,74.097504 217.267242,74.076973 217.851639,74.088257 
	C217.835785,74.221039 217.468719,74.321983 216.951263,74.270477 
z"/>
<path fill="#7D3613" opacity="1.000000" stroke="none" 
	d="
M340.269897,259.837982 
	C340.734497,260.326508 340.752472,260.855072 340.712463,261.776001 
	C315.379608,262.091278 290.104767,262.014252 264.041809,261.628418 
	C244.781204,261.236176 226.308594,261.170258 207.836395,261.043793 
	C205.878891,261.030426 203.923798,260.662048 201.967590,260.458344 
	C204.282257,260.320953 206.596695,260.067566 208.911606,260.063354 
	C252.548798,259.983978 296.186035,259.934082 340.269897,259.837982 
z"/>
<path fill="#320907" opacity="1.000000" stroke="none" 
	d="
M201.577698,260.412262 
	C203.923798,260.662048 205.878891,261.030426 207.836395,261.043793 
	C226.308594,261.170258 244.781204,261.236176 263.569885,261.565521 
	C217.178696,261.893250 170.471329,261.972717 123.763954,262.059631 
	C117.449310,262.071381 111.134727,262.120667 104.362320,262.310669 
	C103.676361,262.152710 103.448204,261.836639 103.488235,261.179077 
	C103.933228,260.791656 104.110031,260.745697 104.286842,260.699738 
	C128.818634,260.699799 153.350433,260.699890 178.682892,260.801636 
	C179.716400,260.869049 179.949249,260.834778 180.182098,260.800537 
	C180.849762,260.802460 181.517410,260.804413 182.795990,260.910065 
	C183.952194,260.877991 184.497482,260.742188 185.042770,260.606415 
	C186.400085,260.618225 187.757385,260.630005 189.781738,260.801697 
	C191.316437,260.804749 192.184082,260.647919 193.051727,260.491119 
	C193.471817,260.462952 193.891891,260.434814 194.849182,260.617493 
	C196.279053,260.713959 197.171692,260.599640 198.064346,260.485321 
	C199.105499,260.445587 200.146652,260.405884 201.577698,260.412262 
z"/>
<path fill="#7D3613" opacity="1.000000" stroke="none" 
	d="
M155.729553,197.787476 
	C155.745102,198.352097 155.760651,198.916718 155.752670,199.905243 
	C138.779129,200.227158 121.829109,200.125137 104.402313,200.011902 
	C103.930618,199.661575 103.935707,199.322449 104.402435,198.604065 
	C107.688995,198.162613 110.513657,198.063858 113.338875,198.044434 
	C127.469025,197.947357 141.599319,197.871078 155.729553,197.787476 
z"/>
<path fill="#7D3613" opacity="1.000000" stroke="none" 
	d="
M104.210373,260.258026 
	C104.110031,260.745697 103.933228,260.791656 103.486557,260.876862 
	C103.179504,244.577698 103.142311,228.239273 103.140091,211.431091 
	C103.471146,212.845367 104.011978,214.727783 104.024353,216.613678 
	C104.118881,231.014175 104.110359,245.415344 104.210373,260.258026 
z"/>
<path fill="#7D3613" opacity="1.000000" stroke="none" 
	d="
M340.598633,244.178558 
	C340.891388,247.284729 340.968689,250.737122 340.955353,254.652069 
	C340.704193,251.584686 340.543640,248.054733 340.598633,244.178558 
z"/>
<path fill="#7D3613" opacity="1.000000" stroke="none" 
	d="
M197.685242,260.351501 
	C197.171692,260.599640 196.279053,260.713959 195.163712,260.647705 
	C195.729401,260.383972 196.517776,260.300842 197.685242,260.351501 
z"/>
<path fill="#7D3613" opacity="1.000000" stroke="none" 
	d="
M192.736298,260.335327 
	C192.184082,260.647919 191.316437,260.804749 190.121033,260.848083 
	C190.669144,260.549561 191.545013,260.364532 192.736298,260.335327 
z"/>
<path fill="#7D3613" opacity="1.000000" stroke="none" 
	d="
M184.778900,260.441956 
	C184.497482,260.742188 183.952194,260.877991 183.129730,260.919312 
	C183.406693,260.642395 183.960861,260.459930 184.778900,260.441956 
z"/>
<path fill="#7D3613" opacity="1.000000" stroke="none" 
	d="
M180.046860,260.629883 
	C179.949249,260.834778 179.716400,260.869049 179.137543,260.830322 
	C179.164902,260.657959 179.538269,260.558624 180.046860,260.629883 
z"/>
<path fill="#FED206" opacity="1.000000" stroke="none" 
	d="
M155.749344,197.331177 
	C141.599319,197.871078 127.469025,197.947357 113.338875,198.044434 
	C110.513657,198.063858 107.688995,198.162613 104.403839,198.349731 
	C103.900963,194.965515 103.823875,191.456406 103.821548,187.947266 
	C103.810333,170.995270 103.819229,154.043274 103.824593,136.641159 
	C120.871117,136.191040 137.914047,136.191040 155.290634,136.191040 
	C155.434189,137.777725 155.580597,139.396057 155.874268,141.350983 
	C155.937393,160.083328 155.853256,178.479095 155.749344,197.331177 
z"/>
<path fill="#A249A3" opacity="1.000000" stroke="none" 
	d="
M341.048889,371.536499 
	C341.113708,377.126648 341.113708,382.250885 341.113708,387.699402 
	C323.621735,387.699402 306.707947,387.699402 289.024323,387.699402 
	C289.024323,384.448273 289.024323,381.183899 288.966309,377.461639 
	C288.908264,359.561615 288.908264,342.119446 288.908264,324.335693 
	C306.345123,324.335693 323.227936,324.335693 340.984100,324.335693 
	C340.984100,339.923126 340.984100,355.496826 341.048889,371.536499 
z"/>
</svg>